<svg xmlns="http://www.w3.org/2000/svg" viewBox="0 0 32 32">
  <defs>
    <linearGradient id="g" x1="0%" y1="0%" x2="100%" y2="100%">
      <stop offset="0%" stop-color="hsl(220,70%,45%)"/>
      <stop offset="100%" stop-color="hsl(200,80%,50%)"/>
    </linearGradient>
  </defs>
  <!-- Rounded square background matching the app header logo -->
  <rect width="32" height="32" rx="7" fill="url(#g)"/>
  <!-- Lucide Rocket icon, scaled from 24×24 viewport into 8–24px space -->
  <g transform="translate(8,8) scale(0.667)" stroke="white" stroke-width="2.2" stroke-linecap="round" stroke-linejoin="round" fill="none">
    <path d="M4.5 16.5c-1.5 1.26-2 5-2 5s3.74-.5 5-2c.71-.84.7-2.13-.09-2.91a2.18 2.18 0 0 0-2.91-.09z"/>
    <path d="m12 15-3-3a22 22 0 0 1 2-3.95A12.88 12.88 0 0 1 22 2c0 2.72-.78 7.5-6 11a22.35 22.35 0 0 1-4 2z"/>
    <path d="M9 12H4s.55-3.03 2-4c1.62-1.08 5 0 5 0"/>
    <path d="M12 15v5s3.03-.55 4-2c1.08-1.62 0-5 0-5"/>
  </g>
</svg>
